<svg xmlns="http://www.w3.org/2000/svg" xmlns:xlink="http://www.w3.org/1999/xlink" width="100" zoomAndPan="magnify" viewBox="0 0 75 74.999997" height="100" preserveAspectRatio="xMidYMid meet" version="1.0"><defs><clipPath id="1d67b14b84"><path d="M 5 56 L 71 56 L 71 68.933594 L 5 68.933594 Z M 5 56 " clip-rule="nonzero"/></clipPath><clipPath id="4130dcca5c"><path d="M 5 55 L 72 55 L 72 68.933594 L 5 68.933594 Z M 5 55 " clip-rule="nonzero"/></clipPath></defs><path fill="#f9b03a" d="M 9.742188 35.253906 C 5.761719 33.574219 -0.0078125 22.507812 14.34375 14.238281 C 28.691406 5.96875 47.960938 6.117188 55.925781 10.707031 C 63.890625 15.296875 74.152344 28.71875 68.136719 34.722656 C 68.136719 34.722656 47.707031 39.078125 40 37.019531 C 32.292969 34.957031 13.722656 36.929688 9.742188 35.253906 " fill-opacity="1" fill-rule="evenodd"/><path fill="#000000" d="M 9.5 35.824219 C 8.320312 35.328125 7.015625 34.113281 6.046875 32.4375 C 5.308594 31.164062 4.753906 29.613281 4.589844 27.898438 C 4.425781 26.183594 4.648438 24.308594 5.460938 22.386719 C 6.699219 19.453125 9.3125 16.417969 14.03125 13.703125 L 14.070312 13.679688 C 20.8125 9.804688 28.613281 7.761719 35.839844 7.148438 C 44.21875 6.433594 51.863281 7.652344 56.234375 10.167969 L 56.238281 10.171875 C 58.246094 11.328125 60.390625 13.027344 62.390625 15.019531 C 65.183594 17.808594 67.703125 21.1875 69.183594 24.484375 C 70.707031 27.882812 71.128906 31.210938 69.640625 33.78125 C 69.355469 34.277344 69 34.738281 68.578125 35.164062 C 68.476562 35.261719 68.351562 35.320312 68.222656 35.339844 C 67.285156 35.539062 47.511719 39.671875 39.839844 37.621094 C 35.855469 36.554688 28.832031 36.585938 22.511719 36.617188 C 16.71875 36.644531 11.503906 36.667969 9.5 35.824219 Z M 7.121094 31.816406 C 7.957031 33.253906 9.035156 34.28125 9.984375 34.679688 C 11.753906 35.425781 16.847656 35.402344 22.507812 35.375 C 28.914062 35.347656 36.03125 35.3125 40.160156 36.417969 C 47.308594 38.328125 65.761719 34.582031 67.820312 34.15625 C 68.113281 33.839844 68.363281 33.507812 68.5625 33.160156 C 69.824219 30.980469 69.417969 28.042969 68.046875 24.992188 C 66.636719 21.84375 64.207031 18.59375 61.507812 15.902344 C 59.578125 13.976562 57.523438 12.347656 55.613281 11.246094 C 51.453125 8.847656 44.078125 7.695312 35.941406 8.386719 C 28.871094 8.988281 21.253906 10.980469 14.683594 14.757812 L 14.65625 14.777344 C 10.199219 17.34375 7.75 20.167969 6.605469 22.867188 C 5.878906 24.585938 5.683594 26.253906 5.828125 27.78125 C 5.976562 29.304688 6.46875 30.683594 7.121094 31.816406 " fill-opacity="1" fill-rule="evenodd"/><path fill="#67c700" d="M 40 37.019531 C 32.292969 34.957031 13.722656 36.929688 9.742188 35.253906 C 9.691406 35.230469 9.640625 35.207031 9.589844 35.183594 C 8.394531 36.539062 6.535156 38.378906 5.054688 38.652344 C 2.664062 39.09375 4.199219 42.128906 7.617188 41.214844 C 11.039062 40.300781 11.203125 38.695312 13.191406 40.683594 C 15.183594 42.667969 16.050781 41.773438 19.472656 39.800781 C 22.898438 37.828125 24.902344 37.828125 28.941406 40.152344 C 32.980469 42.480469 39.066406 43.351562 40.355469 41.125 C 41.644531 38.894531 48.226562 40.507812 49.820312 42.097656 C 51.414062 43.683594 58.390625 42.566406 59.375 40.859375 C 60.363281 39.152344 64.507812 42.886719 66.808594 42.273438 C 69.109375 41.65625 74.992188 39.214844 67.445312 34.863281 C 63.820312 35.597656 46.863281 38.855469 40 37.019531 " fill-opacity="1" fill-rule="evenodd"/><path fill="#000000" d="M 39.839844 37.621094 C 35.855469 36.554688 28.832031 36.585938 22.511719 36.617188 C 16.957031 36.644531 11.929688 36.664062 9.761719 35.925781 C 9.101562 36.652344 8.285156 37.464844 7.445312 38.105469 C 6.691406 38.683594 5.902344 39.125 5.164062 39.261719 C 4.78125 39.335938 4.578125 39.476562 4.53125 39.628906 C 4.507812 39.699219 4.515625 39.78125 4.550781 39.875 C 4.59375 40 4.683594 40.125 4.8125 40.246094 C 5.289062 40.679688 6.207031 40.945312 7.457031 40.613281 C 8.558594 40.316406 9.308594 39.945312 9.894531 39.65625 C 11.363281 38.929688 12 38.613281 13.632812 40.242188 C 15.066406 41.671875 15.84375 41.214844 18.128906 39.867188 C 18.382812 39.71875 18.648438 39.5625 19.164062 39.261719 C 20.976562 38.21875 22.429688 37.695312 23.992188 37.746094 C 25.542969 37.792969 27.140625 38.398438 29.25 39.617188 C 31.273438 40.78125 33.832031 41.570312 35.996094 41.753906 C 37.835938 41.910156 39.335938 41.644531 39.816406 40.816406 L 39.816406 40.8125 C 39.910156 40.648438 40.03125 40.496094 40.167969 40.359375 C 41.074219 39.453125 42.820312 39.273438 44.636719 39.503906 C 46.355469 39.722656 48.171875 40.308594 49.335938 40.976562 C 49.714844 41.195312 50.03125 41.421875 50.261719 41.65625 C 50.320312 41.714844 50.394531 41.769531 50.480469 41.816406 C 51.324219 42.304688 53.054688 42.339844 54.757812 42.09375 C 56.464844 41.851562 58.085938 41.332031 58.710938 40.707031 C 58.769531 40.648438 58.8125 40.597656 58.835938 40.550781 C 59.644531 39.15625 61.3125 39.898438 63.144531 40.71875 C 64.414062 41.289062 65.785156 41.902344 66.648438 41.671875 C 67.453125 41.457031 68.71875 41.007812 69.609375 40.328125 C 70.042969 40 70.375 39.625 70.496094 39.214844 C 70.609375 38.835938 70.535156 38.378906 70.167969 37.84375 C 69.703125 37.164062 68.8125 36.394531 67.335938 35.519531 C 64.777344 36.035156 57.34375 37.445312 50.5 37.980469 C 46.367188 38.304688 42.429688 38.3125 39.839844 37.621094 Z M 22.507812 35.375 C 28.914062 35.347656 36.03125 35.3125 40.160156 36.417969 C 42.597656 37.070312 46.394531 37.054688 50.402344 36.742188 C 57.390625 36.191406 64.964844 34.734375 67.289062 34.265625 C 67.441406 34.222656 67.609375 34.242188 67.757812 34.328125 C 69.53125 35.347656 70.613281 36.289062 71.195312 37.144531 C 71.800781 38.023438 71.90625 38.835938 71.691406 39.5625 C 71.488281 40.257812 70.988281 40.84375 70.367188 41.316406 C 69.3125 42.117188 67.875 42.628906 66.96875 42.875 C 65.683594 43.21875 64.101562 42.511719 62.636719 41.855469 C 61.339844 41.273438 60.160156 40.746094 59.914062 41.167969 C 59.828125 41.316406 59.71875 41.457031 59.589844 41.585938 C 58.773438 42.402344 56.871094 43.046875 54.933594 43.328125 C 52.992188 43.605469 50.953125 43.527344 49.855469 42.894531 C 49.671875 42.789062 49.511719 42.667969 49.378906 42.535156 C 49.21875 42.378906 48.992188 42.214844 48.710938 42.054688 C 47.679688 41.457031 46.042969 40.933594 44.480469 40.734375 C 43.011719 40.546875 41.648438 40.640625 41.046875 41.238281 C 40.988281 41.296875 40.933594 41.363281 40.894531 41.4375 C 40.136719 42.742188 38.191406 43.1875 35.894531 42.992188 C 33.566406 42.796875 30.8125 41.945312 28.632812 40.691406 C 26.703125 39.582031 25.277344 39.027344 23.960938 38.984375 C 22.65625 38.945312 21.394531 39.410156 19.785156 40.339844 C 19.558594 40.46875 19.140625 40.714844 18.761719 40.9375 C 15.855469 42.652344 14.867188 43.234375 12.75 41.125 C 11.75 40.125 11.355469 40.320312 10.445312 40.769531 C 9.808594 41.085938 8.992188 41.488281 7.78125 41.816406 C 6.054688 42.277344 4.707031 41.839844 3.96875 41.160156 L 3.96875 41.15625 C 3.691406 40.898438 3.492188 40.601562 3.378906 40.296875 C 3.253906 39.957031 3.238281 39.601562 3.339844 39.269531 C 3.515625 38.6875 4.035156 38.207031 4.941406 38.042969 C 5.460938 37.945312 6.074219 37.589844 6.6875 37.117188 C 7.574219 36.441406 8.453125 35.53125 9.121094 34.773438 C 9.296875 34.574219 9.59375 34.503906 9.851562 34.621094 L 9.992188 34.683594 C 11.765625 35.425781 16.855469 35.402344 22.507812 35.375 " fill-opacity="1" fill-rule="evenodd"/><path fill="#fed469" d="M 19.472656 39.800781 C 16.050781 41.773438 15.183594 42.667969 13.191406 40.683594 C 11.789062 39.28125 11.292969 39.667969 9.925781 40.335938 C 12.421875 41.195312 18.457031 43.570312 22.5 47.605469 C 22.5 47.605469 36.359375 42.101562 52.433594 45.613281 C 68.511719 49.128906 69.847656 50.539062 69.847656 50.539062 C 69.847656 50.539062 71.746094 47.417969 68.90625 41.484375 C 68.160156 41.859375 67.375 42.121094 66.808594 42.273438 C 64.507812 42.886719 60.363281 39.152344 59.375 40.859375 C 58.390625 42.566406 51.414062 43.683594 49.820312 42.097656 C 48.226562 40.507812 41.644531 38.894531 40.355469 41.125 C 39.066406 43.351562 32.980469 42.480469 28.941406 40.152344 C 24.902344 37.828125 22.898438 37.828125 19.472656 39.800781 " fill-opacity="1" fill-rule="evenodd"/><path fill="#cdac56" d="M 70.097656 44.71875 C 69.855469 43.753906 69.476562 42.675781 68.90625 41.484375 C 68.160156 41.859375 67.375 42.121094 66.808594 42.273438 C 64.507812 42.886719 60.363281 39.152344 59.375 40.859375 C 58.390625 42.566406 51.414062 43.683594 49.820312 42.097656 C 48.226562 40.507812 41.644531 38.894531 40.355469 41.125 C 39.066406 43.351562 32.980469 42.480469 28.941406 40.152344 C 24.902344 37.828125 22.898438 37.828125 19.472656 39.800781 C 19.046875 40.046875 18.65625 40.277344 18.300781 40.488281 C 15.816406 41.953125 14.933594 42.421875 13.191406 40.683594 C 11.789062 39.28125 11.292969 39.664062 9.925781 40.335938 C 11.503906 40.878906 14.503906 42.03125 17.515625 43.824219 C 17.789062 43.707031 18.050781 43.589844 18.300781 43.476562 C 20.734375 42.378906 22.390625 41.449219 24.453125 42.003906 C 27.554688 42.832031 35.148438 43.359375 37.691406 43.359375 C 40.234375 43.359375 40.832031 43.054688 42.8125 42.523438 C 44.796875 41.992188 47.742188 43.238281 51.175781 44.15625 C 54.609375 45.074219 60.402344 44.144531 62.914062 44.816406 C 64.328125 45.195312 67.542969 44.980469 70.097656 44.71875 " fill-opacity="1" fill-rule="evenodd"/><path fill="#000000" d="M 19.785156 40.339844 C 19.546875 40.472656 19.136719 40.714844 18.761719 40.9375 C 17.648438 41.59375 16.820312 42.082031 16.097656 42.320312 C 16.542969 42.554688 16.992188 42.800781 17.441406 43.058594 C 19.25 44.105469 21.082031 45.375 22.652344 46.882812 C 24.996094 46.035156 37.855469 41.792969 52.566406 45.007812 C 64.007812 47.507812 68.113281 49.003906 69.546875 49.671875 C 69.890625 48.644531 70.3125 46.1875 68.601562 42.308594 C 68.4375 42.378906 68.277344 42.445312 68.117188 42.503906 C 67.691406 42.664062 67.292969 42.785156 66.96875 42.875 C 65.683594 43.21875 64.101562 42.511719 62.636719 41.855469 C 61.339844 41.273438 60.160156 40.746094 59.914062 41.171875 L 59.890625 41.210938 C 59.804688 41.347656 59.707031 41.472656 59.589844 41.585938 L 59.550781 41.625 C 58.714844 42.421875 56.84375 43.050781 54.933594 43.328125 C 52.992188 43.605469 50.957031 43.527344 49.855469 42.894531 L 49.855469 42.890625 C 49.671875 42.789062 49.511719 42.667969 49.378906 42.535156 C 49.21875 42.378906 48.992188 42.214844 48.710938 42.054688 L 48.683594 42.035156 C 47.648438 41.445312 46.027344 40.929688 44.480469 40.734375 C 43.011719 40.546875 41.648438 40.640625 41.046875 41.238281 C 40.984375 41.300781 40.933594 41.367188 40.894531 41.4375 C 40.109375 42.792969 38.035156 43.222656 35.613281 42.964844 C 33.347656 42.726562 30.722656 41.898438 28.628906 40.691406 L 28.597656 40.671875 C 26.6875 39.574219 25.269531 39.027344 23.960938 38.984375 C 22.65625 38.945312 21.394531 39.410156 19.785156 40.339844 Z M 18.128906 39.867188 C 18.382812 39.71875 18.65625 39.554688 19.164062 39.261719 C 20.976562 38.21875 22.429688 37.695312 23.992188 37.746094 C 25.535156 37.792969 27.121094 38.394531 29.214844 39.59375 L 29.253906 39.617188 C 31.199219 40.738281 33.636719 41.507812 35.742188 41.730469 C 37.695312 41.933594 39.308594 41.6875 39.816406 40.8125 C 39.914062 40.644531 40.03125 40.492188 40.164062 40.355469 C 41.074219 39.453125 42.820312 39.273438 44.636719 39.503906 C 46.335938 39.71875 48.136719 40.296875 49.296875 40.957031 L 49.335938 40.976562 C 49.714844 41.195312 50.03125 41.421875 50.261719 41.65625 C 50.320312 41.714844 50.394531 41.769531 50.480469 41.816406 C 51.324219 42.304688 53.054688 42.339844 54.757812 42.09375 C 56.4375 41.851562 58.035156 41.347656 58.683594 40.734375 L 58.707031 40.707031 C 58.757812 40.65625 58.800781 40.609375 58.824219 40.570312 L 58.835938 40.546875 C 59.644531 39.152344 61.3125 39.898438 63.144531 40.71875 C 64.414062 41.289062 65.785156 41.902344 66.648438 41.671875 C 66.945312 41.589844 67.304688 41.480469 67.679688 41.339844 C 67.976562 41.226562 68.289062 41.097656 68.59375 40.945312 L 68.640625 40.921875 C 68.949219 40.773438 69.324219 40.90625 69.46875 41.214844 C 72.453125 47.449219 70.390625 50.839844 70.386719 50.851562 C 70.363281 50.890625 70.332031 50.929688 70.296875 50.96875 C 70.0625 51.214844 69.667969 51.226562 69.417969 50.988281 C 69.414062 50.984375 68.207031 49.699219 52.304688 46.222656 C 36.855469 42.847656 23.535156 47.871094 22.765625 48.167969 C 22.53125 48.277344 22.25 48.234375 22.058594 48.046875 C 20.503906 46.496094 18.648438 45.195312 16.816406 44.136719 C 13.996094 42.507812 11.25 41.449219 9.757812 40.933594 C 9.59375 40.886719 9.449219 40.773438 9.367188 40.609375 C 9.214844 40.300781 9.339844 39.929688 9.648438 39.777344 L 9.894531 39.65625 C 11.363281 38.929688 12 38.613281 13.632812 40.242188 C 15.066406 41.671875 15.84375 41.214844 18.128906 39.867188 " fill-opacity="1" fill-rule="evenodd"/><path fill="#e21d29" d="M 52.433594 45.613281 C 36.359375 42.101562 22.5 47.605469 22.5 47.605469 C 18.457031 43.570312 12.421875 41.195312 9.925781 40.335938 C 9.382812 40.597656 8.707031 40.90625 7.78125 41.167969 C 6.796875 44.742188 5.867188 47.667969 5.398438 47.941406 C 4.132812 48.667969 17.46875 50.867188 31.679688 48.976562 C 45.890625 47.089844 60.132812 48.84375 64.246094 48.84375 C 64.675781 48.84375 65.074219 48.84375 65.441406 48.847656 C 62.867188 48.070312 58.8125 47.007812 52.433594 45.613281 " fill-opacity="1" fill-rule="evenodd"/><path fill="#cb1a25" d="M 22.449219 47.550781 C 18.40625 43.550781 12.410156 41.191406 9.925781 40.335938 C 9.382812 40.597656 8.707031 40.90625 7.78125 41.167969 C 7.453125 42.355469 7.132812 43.472656 6.832031 44.441406 C 9.855469 45.070312 13.300781 45.824219 15.65625 46.453125 C 17.519531 46.953125 19.894531 47.339844 22.449219 47.550781 " fill-opacity="1" fill-rule="evenodd"/><path fill="#000000" d="M 52.304688 46.222656 C 36.414062 42.75 22.765625 48.167969 22.726562 48.183594 C 22.488281 48.277344 22.230469 48.214844 22.058594 48.042969 C 20.503906 46.496094 18.648438 45.195312 16.816406 44.136719 C 14.125 42.578125 11.496094 41.542969 9.964844 41.003906 C 9.734375 41.113281 9.488281 41.226562 9.230469 41.328125 C 8.949219 41.441406 8.636719 41.558594 8.289062 41.667969 C 7.820312 43.347656 7.371094 44.859375 6.984375 45.992188 C 6.71875 46.773438 6.460938 47.410156 6.214844 47.847656 L 6.234375 47.847656 C 6.722656 47.996094 7.464844 48.15625 8.421875 48.3125 C 12.960938 49.046875 22.078125 49.625 31.597656 48.363281 C 42.546875 46.910156 53.484375 47.601562 59.863281 48.003906 L 60 48.011719 C 57.917969 47.492188 55.386719 46.898438 52.304688 46.222656 Z M 22.652344 46.882812 C 24.996094 46.035156 37.855469 41.792969 52.566406 45.007812 C 55.753906 45.703125 58.367188 46.320312 60.515625 46.859375 C 62.664062 47.398438 64.328125 47.859375 65.621094 48.25 C 65.878906 48.328125 66.066406 48.566406 66.066406 48.847656 C 66.0625 49.191406 65.785156 49.46875 65.441406 49.464844 L 64.246094 49.464844 C 63.285156 49.464844 61.75 49.367188 59.785156 49.246094 C 53.449219 48.84375 42.582031 48.15625 31.757812 49.59375 C 22.101562 50.875 12.839844 50.285156 8.226562 49.539062 C 7.214844 49.375 6.417969 49.203125 5.875 49.035156 C 4.964844 48.761719 4.558594 48.347656 4.726562 47.832031 C 4.785156 47.652344 4.902344 47.507812 5.089844 47.402344 C 5.175781 47.351562 5.4375 46.667969 5.804688 45.59375 C 6.21875 44.386719 6.691406 42.789062 7.171875 41.042969 C 7.214844 40.824219 7.378906 40.636719 7.613281 40.570312 C 8.046875 40.449219 8.425781 40.3125 8.761719 40.175781 C 9.121094 40.03125 9.40625 39.898438 9.652344 39.777344 C 9.796875 39.707031 9.964844 39.691406 10.128906 39.746094 C 11.664062 40.277344 14.523438 41.371094 17.441406 43.058594 C 19.25 44.105469 21.082031 45.375 22.652344 46.882812 " fill-opacity="1" fill-rule="evenodd"/><path fill="#673000" d="M 7.222656 48.726562 C 7.222656 48.726562 4.808594 49.296875 4.808594 52.457031 C 4.808594 55.617188 4.085938 56.566406 11.371094 56.835938 C 18.652344 57.105469 33.625 58.324219 44.480469 58.324219 C 55.335938 58.324219 67.03125 58.527344 69.222656 56.339844 C 70.625 54.941406 70.460938 52.851562 69.453125 50.296875 C 68.949219 50.039062 67.835938 49.566406 65.441406 48.847656 C 65.074219 48.84375 64.675781 48.84375 64.246094 48.84375 C 60.132812 48.84375 45.890625 47.089844 31.679688 48.976562 C 21.242188 50.363281 11.277344 49.546875 7.222656 48.726562 " fill-opacity="1" fill-rule="evenodd"/><path fill="#542700" d="M 7.222656 48.726562 C 4.789062 49.945312 4.761719 52.582031 4.796875 53.351562 C 10.742188 51.75 13.003906 55.464844 21.054688 53.964844 C 31.597656 51.996094 37.835938 56.078125 48.195312 53.496094 C 58.558594 50.917969 62.828125 55.980469 69.980469 55.191406 C 70.496094 53.890625 70.214844 52.226562 69.453125 50.296875 C 68.949219 50.039062 67.835938 49.566406 65.441406 48.847656 C 65.074219 48.84375 64.675781 48.84375 64.246094 48.84375 C 60.132812 48.84375 45.890625 47.089844 31.679688 48.980469 C 21.242188 50.363281 11.277344 49.546875 7.222656 48.726562 " fill-opacity="1" fill-rule="evenodd"/><path fill="#000000" d="M 7.253906 49.367188 C 6.839844 49.511719 5.433594 50.179688 5.433594 52.457031 C 5.433594 52.628906 5.425781 52.953125 5.421875 53.253906 C 5.375 55.328125 5.363281 55.992188 11.390625 56.214844 C 13.867188 56.308594 17.148438 56.503906 20.851562 56.722656 C 28.222656 57.164062 37.25 57.703125 44.480469 57.703125 L 47.039062 57.707031 C 56.976562 57.722656 66.941406 57.738281 68.78125 55.898438 L 68.816406 55.871094 C 69.367188 55.300781 69.613281 54.585938 69.621094 53.746094 C 69.628906 52.875 69.382812 51.867188 68.960938 50.746094 C 68.726562 50.636719 68.398438 50.5 67.9375 50.328125 C 67.328125 50.097656 66.492188 49.8125 65.34375 49.464844 L 64.246094 49.464844 C 63.285156 49.464844 61.75 49.367188 59.785156 49.246094 C 53.449219 48.84375 42.582031 48.15625 31.757812 49.59375 C 27.28125 50.1875 22.886719 50.378906 19 50.339844 C 13.882812 50.289062 9.640625 49.832031 7.253906 49.367188 Z M 4.1875 52.457031 C 4.1875 48.808594 7.070312 48.125 7.078125 48.125 C 7.160156 48.101562 7.253906 48.101562 7.34375 48.117188 C 9.640625 48.582031 13.867188 49.046875 19.011719 49.097656 C 22.839844 49.140625 27.175781 48.949219 31.597656 48.363281 C 42.546875 46.910156 53.484375 47.601562 59.863281 48.003906 C 61.78125 48.125 63.285156 48.21875 64.246094 48.21875 L 64.246094 48.222656 L 65.398438 48.226562 C 65.472656 48.21875 65.546875 48.226562 65.621094 48.25 C 66.824219 48.613281 67.71875 48.917969 68.375 49.164062 C 69.003906 49.398438 69.421875 49.585938 69.695312 49.722656 C 69.84375 49.789062 69.96875 49.910156 70.035156 50.070312 C 70.566406 51.414062 70.875 52.652344 70.863281 53.757812 C 70.855469 54.917969 70.5 55.925781 69.699219 56.742188 L 69.664062 56.78125 C 67.464844 58.976562 57.238281 58.964844 47.039062 58.949219 L 44.480469 58.949219 C 37.261719 58.949219 28.1875 58.40625 20.777344 57.964844 C 17.050781 57.742188 13.742188 57.546875 11.347656 57.457031 C 4.09375 57.1875 4.113281 56.230469 4.175781 53.230469 C 4.179688 53.042969 4.1875 52.84375 4.1875 52.457031 " fill-opacity="1" fill-rule="evenodd"/><g clip-path="url(#1d67b14b84)"><path fill="#f8932b" d="M 44.480469 58.324219 C 33.625 58.324219 18.652344 57.105469 11.371094 56.835938 C 9.582031 56.769531 8.277344 56.664062 7.324219 56.492188 C 6.675781 57.40625 5.941406 58.945312 5.941406 61.214844 C 5.941406 65.277344 10.101562 68.257812 36.519531 68.257812 C 62.9375 68.257812 68.660156 66.210938 69.722656 64.375 C 70.570312 62.90625 71.449219 61.160156 69.296875 56.261719 C 69.273438 56.289062 69.25 56.316406 69.222656 56.339844 C 67.03125 58.527344 55.335938 58.324219 44.480469 58.324219 " fill-opacity="1" fill-rule="evenodd"/></g><path fill="#f9b03a" d="M 44.40625 58.402344 C 33.550781 58.402344 18.578125 57.183594 11.296875 56.914062 C 9.507812 56.847656 8.203125 56.738281 7.25 56.566406 C 6.601562 57.480469 5.867188 59.019531 5.867188 61.289062 C 5.867188 62.238281 6.09375 63.128906 6.78125 63.9375 C 9.28125 60.796875 11.75 59.445312 17.949219 61.183594 C 21.765625 62.253906 21.59375 64.589844 26 65.339844 C 28.757812 65.8125 31.925781 63.214844 35.089844 62.367188 C 43.308594 60.171875 40.945312 64.976562 46.761719 65.320312 C 49.804688 65.503906 51.421875 62.160156 54.621094 61.421875 C 57.816406 60.683594 62.539062 65.617188 70.265625 59.257812 C 70.054688 58.429688 69.71875 57.46875 69.222656 56.339844 C 69.199219 56.363281 69.175781 56.390625 69.148438 56.414062 C 66.957031 58.605469 55.261719 58.402344 44.40625 58.402344 " fill-opacity="1" fill-rule="evenodd"/><g clip-path="url(#4130dcca5c)"><path fill="#000000" d="M 44.480469 58.949219 C 37.261719 58.949219 28.1875 58.40625 20.777344 57.964844 C 17.050781 57.742188 13.742188 57.546875 11.347656 57.457031 C 10.417969 57.421875 9.636719 57.378906 8.980469 57.324219 C 8.480469 57.28125 8.03125 57.230469 7.621094 57.167969 C 7.355469 57.605469 7.085938 58.15625 6.890625 58.828125 C 6.695312 59.492188 6.566406 60.285156 6.566406 61.214844 C 6.566406 62.976562 7.519531 64.515625 11.496094 65.664062 C 15.78125 66.898438 23.371094 67.632812 36.519531 67.632812 C 49.695312 67.632812 57.699219 67.125 62.535156 66.386719 C 67.167969 65.683594 68.734375 64.839844 69.183594 64.066406 L 69.183594 64.0625 C 69.570312 63.394531 69.964844 62.664062 70.015625 61.578125 C 70.0625 60.554688 69.820312 59.191406 69.035156 57.238281 C 65.921875 58.976562 56.46875 58.960938 47.039062 58.949219 Z M 20.851562 56.722656 C 28.222656 57.164062 37.25 57.703125 44.480469 57.703125 L 47.039062 57.707031 C 56.976562 57.722656 66.941406 57.738281 68.78125 55.898438 L 68.84375 55.839844 C 68.898438 55.777344 68.96875 55.730469 69.046875 55.695312 C 69.363281 55.558594 69.730469 55.699219 69.867188 56.015625 C 70.988281 58.5625 71.316406 60.316406 71.257812 61.632812 C 71.195312 63.011719 70.722656 63.886719 70.261719 64.6875 C 69.648438 65.742188 67.820312 66.84375 62.722656 67.621094 C 57.828125 68.363281 49.761719 68.878906 36.519531 68.878906 C 23.253906 68.878906 15.550781 68.125 11.152344 66.855469 C 6.445312 65.5 5.316406 63.515625 5.316406 61.214844 C 5.316406 60.167969 5.46875 59.257812 5.695312 58.484375 C 5.992188 57.46875 6.417969 56.695312 6.816406 56.132812 C 6.949219 55.945312 7.1875 55.835938 7.433594 55.882812 C 7.875 55.960938 8.421875 56.027344 9.085938 56.082031 C 9.769531 56.140625 10.53125 56.183594 11.390625 56.214844 C 13.867188 56.308594 17.148438 56.503906 20.851562 56.722656 " fill-opacity="1" fill-rule="evenodd"/></g><path fill="#f8932b" d="M 30.199219 30.425781 C 27.71875 26.789062 21.179688 34.757812 18.007812 31.015625 C 14.832031 27.273438 12.101562 35.132812 6.15625 29.523438 C 6.394531 30.363281 6.726562 31.132812 7.121094 31.816406 C 7.910156 33.175781 8.914062 34.164062 9.824219 34.609375 C 9.832031 34.613281 9.839844 34.617188 9.851562 34.621094 L 9.984375 34.679688 C 11.753906 35.425781 16.847656 35.402344 22.507812 35.375 C 28.914062 35.347656 36.03125 35.3125 40.160156 36.417969 C 45.855469 37.941406 58.726562 35.871094 64.765625 34.75 C 65.859375 34.546875 66.726562 34.375 67.289062 34.265625 C 67.300781 34.261719 67.308594 34.257812 67.316406 34.257812 C 67.320312 34.257812 67.324219 34.257812 67.328125 34.253906 C 67.539062 34.210938 67.703125 34.179688 67.820312 34.15625 C 68.113281 33.839844 68.363281 33.507812 68.5625 33.160156 C 69.824219 30.980469 69.417969 28.042969 68.046875 24.992188 C 66.636719 21.84375 64.207031 18.59375 61.507812 15.902344 C 61.042969 15.4375 60.566406 14.988281 60.089844 14.5625 C 60.339844 20.167969 64.167969 20.011719 63.226562 22.324219 C 62.285156 24.636719 57.914062 25.5 61.136719 29 C 64.363281 32.5 54.816406 35.4375 51.554688 32.441406 C 48.296875 29.445312 44.742188 27.921875 41.097656 31.351562 C 37.453125 34.785156 32.679688 34.0625 30.199219 30.425781 " fill-opacity="1" fill-rule="evenodd"/><path fill="#54a100" d="M 22.511719 36.617188 C 16.957031 36.644531 11.929688 36.664062 9.761719 35.925781 C 9.320312 36.410156 8.808594 36.933594 8.269531 37.417969 C 8.972656 38.75 9.882812 38.6875 11.246094 37.847656 C 12.613281 37.007812 13.546875 39.203125 15.585938 39.308594 C 17.625 39.414062 22.027344 36 26.996094 37.480469 C 31.960938 38.964844 33.546875 40.230469 35.738281 40.230469 C 37.933594 40.230469 37.378906 38.214844 44.449219 38.976562 C 50.441406 39.625 49.882812 38.558594 52.84375 40.402344 C 55.808594 42.246094 57.660156 37.609375 61.347656 38.59375 C 65.03125 39.582031 67.28125 37.871094 69.078125 36.710938 C 68.621094 36.339844 68.046875 35.941406 67.335938 35.519531 C 66.046875 35.777344 63.527344 36.265625 60.46875 36.75 C 60.441406 36.753906 60.414062 36.761719 60.382812 36.765625 C 57.382812 37.242188 53.867188 37.71875 50.5 37.980469 C 46.382812 38.304688 42.457031 38.3125 39.867188 37.628906 C 39.855469 37.625 39.847656 37.621094 39.839844 37.621094 C 35.855469 36.554688 28.832031 36.585938 22.511719 36.617188 " fill-opacity="1" fill-rule="evenodd"/><path fill="#fbc571" d="M 20.308594 13.667969 C 20.886719 13.667969 21.355469 14.136719 21.355469 14.710938 C 21.355469 15.289062 20.886719 15.753906 20.308594 15.753906 C 19.734375 15.753906 19.265625 15.289062 19.265625 14.710938 C 19.265625 14.136719 19.734375 13.667969 20.308594 13.667969 " fill-opacity="1" fill-rule="evenodd"/><path fill="#fbc571" d="M 18.386719 14.675781 C 18.792969 14.675781 19.121094 15.003906 19.121094 15.40625 C 19.121094 15.8125 18.792969 16.140625 18.386719 16.140625 C 17.980469 16.140625 17.652344 15.8125 17.652344 15.40625 C 17.652344 15.003906 17.980469 14.675781 18.386719 14.675781 " fill-opacity="1" fill-rule="evenodd"/><path fill="#fbc571" d="M 22.296875 12.660156 C 22.703125 12.660156 23.03125 12.984375 23.03125 13.390625 C 23.03125 13.792969 22.703125 14.121094 22.296875 14.121094 C 21.894531 14.121094 21.566406 13.792969 21.566406 13.390625 C 21.566406 12.984375 21.894531 12.660156 22.296875 12.660156 " fill-opacity="1" fill-rule="evenodd"/><path fill="#fbc571" d="M 54.113281 14.328125 C 54.691406 14.328125 55.160156 13.859375 55.160156 13.285156 C 55.160156 12.710938 54.691406 12.242188 54.113281 12.242188 C 53.535156 12.242188 53.066406 12.710938 53.066406 13.285156 C 53.066406 13.859375 53.535156 14.328125 54.113281 14.328125 " fill-opacity="1" fill-rule="evenodd"/><path fill="#fbc571" d="M 51.738281 12.90625 C 52.144531 12.90625 52.46875 12.578125 52.46875 12.171875 C 52.46875 11.769531 52.140625 11.441406 51.738281 11.441406 C 51.332031 11.441406 51.003906 11.769531 51.003906 12.171875 C 51.003906 12.578125 51.332031 12.90625 51.738281 12.90625 " fill-opacity="1" fill-rule="evenodd"/><path fill="#fbc571" d="M 56.101562 15.339844 C 56.503906 15.339844 56.832031 15.011719 56.832031 14.605469 C 56.832031 14.203125 56.503906 13.875 56.101562 13.875 C 55.695312 13.875 55.367188 14.203125 55.367188 14.605469 C 55.367188 15.011719 55.695312 15.339844 56.101562 15.339844 " fill-opacity="1" fill-rule="evenodd"/><path fill="#fab165" d="M 65.117188 23.125 C 65.519531 23.125 65.847656 22.800781 65.847656 22.394531 C 65.847656 21.992188 65.519531 21.664062 65.117188 21.664062 C 64.710938 21.664062 64.382812 21.992188 64.382812 22.394531 C 64.382812 22.800781 64.710938 23.125 65.117188 23.125 " fill-opacity="1" fill-rule="evenodd"/><path fill="#fab165" d="M 65.472656 25.59375 C 66.046875 25.59375 66.515625 25.125 66.515625 24.550781 C 66.515625 23.972656 66.046875 23.507812 65.472656 23.507812 C 64.894531 23.507812 64.425781 23.972656 64.425781 24.550781 C 64.425781 25.125 64.894531 25.59375 65.472656 25.59375 " fill-opacity="1" fill-rule="evenodd"/><path fill="#fab165" d="M 67.066406 27.054688 C 67.472656 27.054688 67.800781 26.726562 67.800781 26.324219 C 67.800781 25.917969 67.472656 25.589844 67.066406 25.589844 C 66.664062 25.589844 66.335938 25.917969 66.335938 26.324219 C 66.335938 26.726562 66.664062 27.054688 67.066406 27.054688 " fill-opacity="1" fill-rule="evenodd"/><path fill="#fab165" d="M 46.234375 31.539062 C 46.640625 31.539062 46.96875 31.210938 46.96875 30.808594 C 46.96875 30.40625 46.640625 30.078125 46.234375 30.078125 C 45.828125 30.078125 45.5 30.40625 45.5 30.808594 C 45.5 31.210938 45.828125 31.539062 46.234375 31.539062 " fill-opacity="1" fill-rule="evenodd"/><path fill="#fab165" d="M 44.316406 32.164062 C 44.722656 32.164062 45.050781 31.839844 45.050781 31.433594 C 45.050781 31.03125 44.722656 30.703125 44.316406 30.703125 C 43.914062 30.703125 43.585938 31.03125 43.585938 31.433594 C 43.585938 31.839844 43.914062 32.164062 44.316406 32.164062 " fill-opacity="1" fill-rule="evenodd"/><path fill="#f8932b" d="M 27.179688 29.140625 C 27.582031 29.140625 27.910156 28.8125 27.910156 28.410156 C 27.910156 28.003906 27.582031 27.675781 27.179688 27.675781 C 26.773438 27.675781 26.445312 28.003906 26.445312 28.410156 C 26.445312 28.8125 26.773438 29.140625 27.179688 29.140625 " fill-opacity="1" fill-rule="evenodd"/><path fill="#f8932b" d="M 25.367188 29.660156 C 25.773438 29.660156 26.101562 29.335938 26.101562 28.929688 C 26.101562 28.527344 25.773438 28.199219 25.367188 28.199219 C 24.960938 28.199219 24.632812 28.527344 24.632812 28.929688 C 24.632812 29.335938 24.960938 29.660156 25.367188 29.660156 " fill-opacity="1" fill-rule="evenodd"/><path fill="#f8932b" d="M 23.554688 30.183594 C 23.960938 30.183594 24.289062 29.855469 24.289062 29.453125 C 24.289062 29.046875 23.960938 28.722656 23.554688 28.722656 C 23.148438 28.722656 22.824219 29.046875 22.824219 29.453125 C 22.824219 29.855469 23.148438 30.183594 23.554688 30.183594 " fill-opacity="1" fill-rule="evenodd"/><path fill="#74b330" d="M 32.109375 38.5625 C 32.511719 38.5625 32.84375 38.234375 32.84375 37.832031 C 32.84375 37.425781 32.511719 37.097656 32.109375 37.097656 C 31.703125 37.097656 31.375 37.425781 31.375 37.832031 C 31.375 38.234375 31.703125 38.5625 32.109375 38.5625 " fill-opacity="1" fill-rule="evenodd"/><path fill="#74b330" d="M 34.285156 38.996094 C 34.691406 38.996094 35.019531 38.667969 35.019531 38.265625 C 35.019531 37.863281 34.691406 37.535156 34.285156 37.535156 C 33.882812 37.535156 33.554688 37.863281 33.554688 38.265625 C 33.554688 38.667969 33.882812 38.996094 34.285156 38.996094 " fill-opacity="1" fill-rule="evenodd"/><path fill="#74b330" d="M 16.378906 38.578125 C 16.785156 38.578125 17.113281 38.25 17.113281 37.847656 C 17.113281 37.445312 16.785156 37.117188 16.378906 37.117188 C 15.976562 37.117188 15.648438 37.445312 15.648438 37.847656 C 15.648438 38.25 15.976562 38.578125 16.378906 38.578125 " fill-opacity="1" fill-rule="evenodd"/><path fill="#74b330" d="M 14.605469 38.214844 C 15.007812 38.214844 15.335938 37.886719 15.335938 37.484375 C 15.335938 37.078125 15.007812 36.75 14.605469 36.75 C 14.199219 36.75 13.871094 37.078125 13.871094 37.484375 C 13.871094 37.886719 14.199219 38.214844 14.605469 38.214844 " fill-opacity="1" fill-rule="evenodd"/><path fill="#74b330" d="M 54.144531 39.640625 C 54.550781 39.640625 54.878906 39.3125 54.878906 38.910156 C 54.878906 38.503906 54.550781 38.175781 54.144531 38.175781 C 53.742188 38.175781 53.414062 38.503906 53.414062 38.910156 C 53.414062 39.3125 53.742188 39.640625 54.144531 39.640625 " fill-opacity="1" fill-rule="evenodd"/><path fill="#845932" d="M 60.140625 56.050781 C 60.542969 56.050781 60.871094 55.722656 60.871094 55.320312 C 60.871094 54.914062 60.542969 54.585938 60.140625 54.585938 C 59.734375 54.585938 59.40625 54.914062 59.40625 55.320312 C 59.40625 55.722656 59.734375 56.050781 60.140625 56.050781 " fill-opacity="1" fill-rule="evenodd"/><path fill="#845932" d="M 58.050781 55.492188 C 58.453125 55.492188 58.78125 55.167969 58.78125 54.761719 C 58.78125 54.359375 58.453125 54.03125 58.050781 54.03125 C 57.644531 54.03125 57.316406 54.359375 57.316406 54.761719 C 57.316406 55.167969 57.644531 55.492188 58.050781 55.492188 " fill-opacity="1" fill-rule="evenodd"/><path fill="#845932" d="M 56.003906 55.136719 C 56.410156 55.136719 56.734375 54.808594 56.734375 54.40625 C 56.734375 54.003906 56.410156 53.675781 56.003906 53.675781 C 55.597656 53.675781 55.269531 54.003906 55.269531 54.40625 C 55.269531 54.808594 55.597656 55.136719 56.003906 55.136719 " fill-opacity="1" fill-rule="evenodd"/><path fill="#845932" d="M 34.195312 55.972656 C 34.601562 55.972656 34.929688 55.644531 34.929688 55.238281 C 34.929688 54.835938 34.601562 54.507812 34.195312 54.507812 C 33.789062 54.507812 33.460938 54.835938 33.460938 55.238281 C 33.460938 55.644531 33.789062 55.972656 34.195312 55.972656 " fill-opacity="1" fill-rule="evenodd"/><path fill="#845932" d="M 32.171875 55.851562 C 32.578125 55.851562 32.90625 55.523438 32.90625 55.117188 C 32.90625 54.714844 32.578125 54.386719 32.171875 54.386719 C 31.769531 54.386719 31.441406 54.714844 31.441406 55.117188 C 31.441406 55.523438 31.769531 55.851562 32.171875 55.851562 " fill-opacity="1" fill-rule="evenodd"/><path fill="#845932" d="M 30.21875 55.804688 C 30.625 55.804688 30.953125 55.476562 30.953125 55.074219 C 30.953125 54.671875 30.625 54.34375 30.21875 54.34375 C 29.8125 54.34375 29.484375 54.671875 29.484375 55.074219 C 29.484375 55.476562 29.8125 55.804688 30.21875 55.804688 " fill-opacity="1" fill-rule="evenodd"/><path fill="#653e1a" d="M 17.140625 53.136719 C 17.546875 53.136719 17.875 52.808594 17.875 52.40625 C 17.875 52 17.546875 51.675781 17.140625 51.675781 C 16.738281 51.675781 16.410156 52 16.410156 52.40625 C 16.410156 52.808594 16.738281 53.136719 17.140625 53.136719 " fill-opacity="1" fill-rule="evenodd"/><path fill="#653e1a" d="M 18.832031 52.902344 C 19.238281 52.902344 19.566406 52.574219 19.566406 52.171875 C 19.566406 51.765625 19.238281 51.441406 18.832031 51.441406 C 18.425781 51.441406 18.097656 51.765625 18.097656 52.171875 C 18.097656 52.574219 18.425781 52.902344 18.832031 52.902344 " fill-opacity="1" fill-rule="evenodd"/><path fill="#653e1a" d="M 20.628906 53.066406 C 21.03125 53.066406 21.359375 52.742188 21.359375 52.335938 C 21.359375 51.933594 21.03125 51.605469 20.628906 51.605469 C 20.222656 51.605469 19.894531 51.933594 19.894531 52.335938 C 19.894531 52.742188 20.222656 53.066406 20.628906 53.066406 " fill-opacity="1" fill-rule="evenodd"/></svg>