<svg xmlns="http://www.w3.org/2000/svg" xmlns:xlink="http://www.w3.org/1999/xlink" width="300" zoomAndPan="magnify" viewBox="0 0 224.87999 34.499999" height="46" preserveAspectRatio="xMidYMid meet" version="1.0"><defs><g/></defs><g fill="#27ae60" fill-opacity="1"><g transform="translate(1.601075, 26.78332)"><g><path d="M 1.984375 0 L 1.984375 -22.765625 L 11.09375 -22.765625 C 13.601562 -22.765625 15.488281 -22.21875 16.75 -21.125 C 18.019531 -20.039062 18.65625 -18.644531 18.65625 -16.9375 C 18.65625 -15.59375 18.265625 -14.503906 17.484375 -13.671875 C 16.710938 -12.847656 15.734375 -12.304688 14.546875 -12.046875 L 14.546875 -11.8125 C 15.410156 -11.78125 16.222656 -11.535156 16.984375 -11.078125 C 17.742188 -10.628906 18.359375 -10 18.828125 -9.1875 C 19.304688 -8.382812 19.546875 -7.421875 19.546875 -6.296875 C 19.546875 -5.085938 19.25 -4.007812 18.65625 -3.0625 C 18.0625 -2.113281 17.179688 -1.363281 16.015625 -0.8125 C 14.847656 -0.269531 13.410156 0 11.703125 0 Z M 6.796875 -3.9375 L 10.71875 -3.9375 C 12.070312 -3.9375 13.050781 -4.195312 13.65625 -4.71875 C 14.269531 -5.238281 14.578125 -5.921875 14.578125 -6.765625 C 14.578125 -7.710938 14.238281 -8.484375 13.5625 -9.078125 C 12.894531 -9.679688 11.984375 -9.984375 10.828125 -9.984375 L 6.796875 -9.984375 Z M 6.796875 -13.25 L 10.359375 -13.25 C 11.347656 -13.25 12.164062 -13.503906 12.8125 -14.015625 C 13.46875 -14.535156 13.796875 -15.242188 13.796875 -16.140625 C 13.796875 -16.960938 13.503906 -17.625 12.921875 -18.125 C 12.335938 -18.625 11.515625 -18.875 10.453125 -18.875 L 6.796875 -18.875 Z M 6.796875 -13.25 "/></g></g></g><g fill="#27ae60" fill-opacity="1"><g transform="translate(22.282867, 26.78332)"><g><path d="M 12.84375 -7.265625 L 12.84375 -17.078125 L 17.578125 -17.078125 L 17.578125 0 L 13.03125 0 L 13.03125 -3.109375 L 12.859375 -3.109375 C 12.472656 -2.097656 11.832031 -1.289062 10.9375 -0.6875 C 10.039062 -0.0820312 8.953125 0.21875 7.671875 0.21875 C 5.953125 0.21875 4.5625 -0.351562 3.5 -1.5 C 2.4375 -2.644531 1.898438 -4.210938 1.890625 -6.203125 L 1.890625 -17.078125 L 6.625 -17.078125 L 6.625 -7.046875 C 6.632812 -6.035156 6.90625 -5.238281 7.4375 -4.65625 C 7.96875 -4.070312 8.679688 -3.78125 9.578125 -3.78125 C 10.429688 -3.78125 11.191406 -4.078125 11.859375 -4.671875 C 12.523438 -5.265625 12.851562 -6.128906 12.84375 -7.265625 Z M 12.84375 -7.265625 "/></g></g></g><g fill="#27ae60" fill-opacity="1"><g transform="translate(41.7422, 26.78332)"><g><path d="M 1.890625 0 L 1.890625 -17.078125 L 6.484375 -17.078125 L 6.484375 -14.09375 L 6.65625 -14.09375 C 6.96875 -15.15625 7.488281 -15.957031 8.21875 -16.5 C 8.945312 -17.050781 9.796875 -17.328125 10.765625 -17.328125 C 11.222656 -17.328125 11.644531 -17.269531 12.03125 -17.15625 C 12.425781 -17.039062 12.78125 -16.890625 13.09375 -16.703125 L 11.671875 -12.78125 C 11.453125 -12.894531 11.207031 -12.988281 10.9375 -13.0625 C 10.675781 -13.144531 10.382812 -13.1875 10.0625 -13.1875 C 9.101562 -13.1875 8.289062 -12.859375 7.625 -12.203125 C 6.96875 -11.554688 6.632812 -10.707031 6.625 -9.65625 L 6.625 0 Z M 1.890625 0 "/></g></g></g><g fill="#27ae60" fill-opacity="1"><g transform="translate(55.155914, 26.78332)"><g><path d="M 9.578125 6.65625 C 7.285156 6.65625 5.484375 6.203125 4.171875 5.296875 C 2.859375 4.390625 2.0625 3.289062 1.78125 2 L 6.15625 1.40625 C 6.351562 1.875 6.726562 2.296875 7.28125 2.671875 C 7.84375 3.054688 8.648438 3.25 9.703125 3.25 C 10.722656 3.25 11.566406 3.003906 12.234375 2.515625 C 12.910156 2.023438 13.25 1.21875 13.25 0.09375 L 13.25 -3.03125 L 13.046875 -3.03125 C 12.742188 -2.320312 12.195312 -1.679688 11.40625 -1.109375 C 10.625 -0.535156 9.550781 -0.25 8.1875 -0.25 C 6.90625 -0.25 5.738281 -0.546875 4.6875 -1.140625 C 3.632812 -1.742188 2.796875 -2.660156 2.171875 -3.890625 C 1.554688 -5.117188 1.25 -6.679688 1.25 -8.578125 C 1.25 -10.515625 1.566406 -12.128906 2.203125 -13.421875 C 2.835938 -14.710938 3.679688 -15.679688 4.734375 -16.328125 C 5.785156 -16.972656 6.929688 -17.296875 8.171875 -17.296875 C 9.128906 -17.296875 9.929688 -17.132812 10.578125 -16.8125 C 11.222656 -16.488281 11.742188 -16.085938 12.140625 -15.609375 C 12.546875 -15.140625 12.847656 -14.671875 13.046875 -14.203125 L 13.234375 -14.203125 L 13.234375 -17.078125 L 17.9375 -17.078125 L 17.9375 0.171875 C 17.9375 1.585938 17.578125 2.773438 16.859375 3.734375 C 16.148438 4.703125 15.164062 5.429688 13.90625 5.921875 C 12.65625 6.410156 11.210938 6.65625 9.578125 6.65625 Z M 9.6875 -3.796875 C 10.820312 -3.796875 11.703125 -4.21875 12.328125 -5.0625 C 12.960938 -5.914062 13.28125 -7.09375 13.28125 -8.59375 C 13.28125 -10.09375 12.96875 -11.289062 12.34375 -12.1875 C 11.71875 -13.082031 10.832031 -13.53125 9.6875 -13.53125 C 8.507812 -13.53125 7.613281 -13.070312 7 -12.15625 C 6.394531 -11.238281 6.09375 -10.050781 6.09375 -8.59375 C 6.09375 -7.113281 6.398438 -5.941406 7.015625 -5.078125 C 7.628906 -4.222656 8.519531 -3.796875 9.6875 -3.796875 Z M 9.6875 -3.796875 "/></g></g></g><g fill="#27ae60" fill-opacity="1"><g transform="translate(74.970871, 26.78332)"><g><path d="M 9.671875 0.328125 C 7.921875 0.328125 6.410156 -0.0234375 5.140625 -0.734375 C 3.878906 -1.453125 2.90625 -2.46875 2.21875 -3.78125 C 1.539062 -5.101562 1.203125 -6.664062 1.203125 -8.46875 C 1.203125 -10.21875 1.539062 -11.753906 2.21875 -13.078125 C 2.90625 -14.410156 3.867188 -15.445312 5.109375 -16.1875 C 6.347656 -16.925781 7.804688 -17.296875 9.484375 -17.296875 C 10.992188 -17.296875 12.351562 -16.976562 13.5625 -16.34375 C 14.769531 -15.707031 15.726562 -14.742188 16.4375 -13.453125 C 17.15625 -12.171875 17.515625 -10.5625 17.515625 -8.625 L 17.515625 -7.328125 L 5.875 -7.328125 L 5.875 -7.3125 C 5.875 -6.039062 6.222656 -5.035156 6.921875 -4.296875 C 7.617188 -3.566406 8.5625 -3.203125 9.75 -3.203125 C 10.539062 -3.203125 11.222656 -3.367188 11.796875 -3.703125 C 12.378906 -4.035156 12.789062 -4.53125 13.03125 -5.1875 L 17.40625 -4.890625 C 17.070312 -3.304688 16.226562 -2.039062 14.875 -1.09375 C 13.519531 -0.144531 11.785156 0.328125 9.671875 0.328125 Z M 5.875 -10.265625 L 13.046875 -10.265625 C 13.046875 -11.273438 12.722656 -12.109375 12.078125 -12.765625 C 11.429688 -13.429688 10.59375 -13.765625 9.5625 -13.765625 C 8.507812 -13.765625 7.644531 -13.421875 6.96875 -12.734375 C 6.289062 -12.054688 5.925781 -11.234375 5.875 -10.265625 Z M 5.875 -10.265625 "/></g></g></g><g fill="#27ae60" fill-opacity="1"><g transform="translate(93.674501, 26.78332)"><g><path d="M 1.890625 0 L 1.890625 -17.078125 L 6.484375 -17.078125 L 6.484375 -14.09375 L 6.65625 -14.09375 C 6.96875 -15.15625 7.488281 -15.957031 8.21875 -16.5 C 8.945312 -17.050781 9.796875 -17.328125 10.765625 -17.328125 C 11.222656 -17.328125 11.644531 -17.269531 12.03125 -17.15625 C 12.425781 -17.039062 12.78125 -16.890625 13.09375 -16.703125 L 11.671875 -12.78125 C 11.453125 -12.894531 11.207031 -12.988281 10.9375 -13.0625 C 10.675781 -13.144531 10.382812 -13.1875 10.0625 -13.1875 C 9.101562 -13.1875 8.289062 -12.859375 7.625 -12.203125 C 6.96875 -11.554688 6.632812 -10.707031 6.625 -9.65625 L 6.625 0 Z M 1.890625 0 "/></g></g></g><g fill="#333333" fill-opacity="1"><g transform="translate(107.081685, 26.78332)"><g><path d="M 8.875 0.328125 C 7.289062 0.328125 5.929688 0.046875 4.796875 -0.515625 C 3.660156 -1.078125 2.785156 -1.84375 2.171875 -2.8125 C 1.554688 -3.78125 1.25 -4.859375 1.25 -6.046875 C 1.25 -7.367188 1.628906 -8.476562 2.390625 -9.375 C 3.160156 -10.269531 4.164062 -11.144531 5.40625 -12 C 4.8125 -12.75 4.300781 -13.554688 3.875 -14.421875 C 3.445312 -15.285156 3.234375 -16.21875 3.234375 -17.21875 C 3.234375 -18.320312 3.492188 -19.316406 4.015625 -20.203125 C 4.535156 -21.085938 5.257812 -21.785156 6.1875 -22.296875 C 7.113281 -22.816406 8.203125 -23.078125 9.453125 -23.078125 C 10.671875 -23.078125 11.722656 -22.832031 12.609375 -22.34375 C 13.492188 -21.851562 14.175781 -21.195312 14.65625 -20.375 C 15.132812 -19.5625 15.375 -18.671875 15.375 -17.703125 C 15.375 -16.628906 15.109375 -15.65625 14.578125 -14.78125 C 14.046875 -13.914062 13.300781 -13.132812 12.34375 -12.4375 L 11.015625 -11.484375 L 14.765625 -7.171875 C 15.066406 -7.734375 15.300781 -8.34375 15.46875 -9 C 15.644531 -9.664062 15.734375 -10.367188 15.734375 -11.109375 L 19.65625 -11.109375 C 19.65625 -9.566406 19.46875 -8.191406 19.09375 -6.984375 C 18.71875 -5.785156 18.21875 -4.765625 17.59375 -3.921875 L 21.015625 0 L 16.078125 0 L 14.703125 -1.53125 C 13.859375 -0.882812 12.921875 -0.410156 11.890625 -0.109375 C 10.867188 0.179688 9.863281 0.328125 8.875 0.328125 Z M 12.140625 -4.375 L 7.828125 -9.1875 L 7.6875 -9.09375 C 7.0625 -8.644531 6.597656 -8.175781 6.296875 -7.6875 C 5.992188 -7.207031 5.84375 -6.75 5.84375 -6.3125 C 5.84375 -5.507812 6.140625 -4.832031 6.734375 -4.28125 C 7.328125 -3.738281 8.117188 -3.46875 9.109375 -3.46875 C 10.140625 -3.46875 11.148438 -3.769531 12.140625 -4.375 Z M 8.734375 -14.1875 L 9.921875 -14.96875 C 11.023438 -15.664062 11.578125 -16.488281 11.578125 -17.4375 C 11.578125 -17.882812 11.394531 -18.300781 11.03125 -18.6875 C 10.664062 -19.070312 10.148438 -19.265625 9.484375 -19.265625 C 8.828125 -19.253906 8.296875 -19.039062 7.890625 -18.625 C 7.492188 -18.207031 7.296875 -17.710938 7.296875 -17.140625 C 7.296875 -16.671875 7.425781 -16.191406 7.6875 -15.703125 C 7.957031 -15.222656 8.304688 -14.71875 8.734375 -14.1875 Z M 8.734375 -14.1875 "/></g></g></g><g fill="#eb5757" fill-opacity="1"><g transform="translate(128.169718, 26.78332)"><g><path d="M 14.328125 -16.21875 C 14.242188 -17.113281 13.863281 -17.8125 13.1875 -18.3125 C 12.507812 -18.8125 11.59375 -19.0625 10.4375 -19.0625 C 9.257812 -19.0625 8.351562 -18.816406 7.71875 -18.328125 C 7.09375 -17.847656 6.78125 -17.242188 6.78125 -16.515625 C 6.769531 -15.703125 7.117188 -15.082031 7.828125 -14.65625 C 8.546875 -14.238281 9.398438 -13.914062 10.390625 -13.6875 L 12.4375 -13.203125 C 13.75 -12.898438 14.914062 -12.46875 15.9375 -11.90625 C 16.96875 -11.34375 17.78125 -10.617188 18.375 -9.734375 C 18.96875 -8.847656 19.265625 -7.769531 19.265625 -6.5 C 19.253906 -4.414062 18.472656 -2.753906 16.921875 -1.515625 C 15.367188 -0.285156 13.203125 0.328125 10.421875 0.328125 C 7.648438 0.328125 5.441406 -0.300781 3.796875 -1.5625 C 2.148438 -2.820312 1.300781 -4.6875 1.25 -7.15625 L 5.90625 -7.15625 C 5.988281 -6.007812 6.4375 -5.148438 7.25 -4.578125 C 8.070312 -4.003906 9.109375 -3.71875 10.359375 -3.71875 C 11.585938 -3.71875 12.566406 -3.972656 13.296875 -4.484375 C 14.023438 -5.003906 14.394531 -5.679688 14.40625 -6.515625 C 14.394531 -7.285156 14.054688 -7.878906 13.390625 -8.296875 C 12.722656 -8.710938 11.769531 -9.066406 10.53125 -9.359375 L 8.046875 -9.984375 C 6.128906 -10.441406 4.613281 -11.171875 3.5 -12.171875 C 2.382812 -13.171875 1.832031 -14.507812 1.84375 -16.1875 C 1.832031 -17.570312 2.195312 -18.78125 2.9375 -19.8125 C 3.6875 -20.84375 4.710938 -21.644531 6.015625 -22.21875 C 7.328125 -22.789062 8.8125 -23.078125 10.46875 -23.078125 C 12.164062 -23.078125 13.644531 -22.785156 14.90625 -22.203125 C 16.164062 -21.628906 17.148438 -20.828125 17.859375 -19.796875 C 18.566406 -18.773438 18.929688 -17.582031 18.953125 -16.21875 Z M 14.328125 -16.21875 "/></g></g></g><g fill="#eb5757" fill-opacity="1"><g transform="translate(148.662584, 26.78332)"><g><path d="M 6.625 -9.875 L 6.625 0 L 1.890625 0 L 1.890625 -22.765625 L 6.5 -22.765625 L 6.5 -14.0625 L 6.6875 -14.0625 C 7.082031 -15.070312 7.707031 -15.863281 8.5625 -16.4375 C 9.425781 -17.007812 10.503906 -17.296875 11.796875 -17.296875 C 13.578125 -17.296875 15.007812 -16.722656 16.09375 -15.578125 C 17.175781 -14.441406 17.710938 -12.875 17.703125 -10.875 L 17.703125 0 L 12.96875 0 L 12.96875 -10.03125 C 12.976562 -11.082031 12.710938 -11.898438 12.171875 -12.484375 C 11.628906 -13.066406 10.878906 -13.359375 9.921875 -13.359375 C 8.953125 -13.359375 8.160156 -13.050781 7.546875 -12.4375 C 6.941406 -11.832031 6.632812 -10.976562 6.625 -9.875 Z M 6.625 -9.875 "/></g></g></g><g fill="#eb5757" fill-opacity="1"><g transform="translate(168.19971, 26.78332)"><g><path d="M 6.765625 0.328125 C 5.128906 0.328125 3.773438 -0.0976562 2.703125 -0.953125 C 1.628906 -1.804688 1.09375 -3.078125 1.09375 -4.765625 C 1.09375 -6.046875 1.390625 -7.046875 1.984375 -7.765625 C 2.585938 -8.492188 3.375 -9.023438 4.34375 -9.359375 C 5.320312 -9.703125 6.375 -9.925781 7.5 -10.03125 C 8.988281 -10.175781 10.050781 -10.328125 10.6875 -10.484375 C 11.320312 -10.648438 11.640625 -11.007812 11.640625 -11.5625 L 11.640625 -11.625 C 11.640625 -12.332031 11.414062 -12.878906 10.96875 -13.265625 C 10.53125 -13.648438 9.910156 -13.84375 9.109375 -13.84375 C 8.253906 -13.84375 7.570312 -13.65625 7.0625 -13.28125 C 6.5625 -12.914062 6.234375 -12.445312 6.078125 -11.875 L 1.6875 -12.234375 C 2.007812 -13.785156 2.816406 -15.015625 4.109375 -15.921875 C 5.410156 -16.835938 7.082031 -17.296875 9.125 -17.296875 C 10.394531 -17.296875 11.582031 -17.09375 12.6875 -16.6875 C 13.789062 -16.289062 14.679688 -15.671875 15.359375 -14.828125 C 16.035156 -13.984375 16.375 -12.878906 16.375 -11.515625 L 16.375 0 L 11.890625 0 L 11.890625 -2.375 L 11.75 -2.375 C 11.332031 -1.570312 10.710938 -0.921875 9.890625 -0.421875 C 9.066406 0.078125 8.023438 0.328125 6.765625 0.328125 Z M 8.125 -2.953125 C 9.15625 -2.953125 10.003906 -3.253906 10.671875 -3.859375 C 11.335938 -4.460938 11.671875 -5.210938 11.671875 -6.109375 L 11.671875 -7.921875 C 11.484375 -7.796875 11.195312 -7.679688 10.8125 -7.578125 C 10.425781 -7.484375 10.007812 -7.398438 9.5625 -7.328125 C 9.125 -7.265625 8.734375 -7.207031 8.390625 -7.15625 C 7.554688 -7.03125 6.882812 -6.789062 6.375 -6.4375 C 5.863281 -6.09375 5.609375 -5.585938 5.609375 -4.921875 C 5.609375 -4.273438 5.84375 -3.785156 6.3125 -3.453125 C 6.789062 -3.117188 7.394531 -2.953125 8.125 -2.953125 Z M 8.125 -2.953125 "/></g></g></g><g fill="#eb5757" fill-opacity="1"><g transform="translate(186.35879, 26.78332)"><g><path d="M 1.890625 0 L 1.890625 -22.765625 L 6.625 -22.765625 L 6.625 -10.59375 L 6.890625 -10.59375 L 12.359375 -17.078125 L 17.796875 -17.078125 L 11.453125 -9.6875 L 18.109375 0 L 12.5625 0 L 7.90625 -6.890625 L 6.625 -5.421875 L 6.625 0 Z M 1.890625 0 "/></g></g></g><g fill="#eb5757" fill-opacity="1"><g transform="translate(204.562324, 26.78332)"><g><path d="M 9.671875 0.328125 C 7.921875 0.328125 6.410156 -0.0234375 5.140625 -0.734375 C 3.878906 -1.453125 2.90625 -2.46875 2.21875 -3.78125 C 1.539062 -5.101562 1.203125 -6.664062 1.203125 -8.46875 C 1.203125 -10.21875 1.539062 -11.753906 2.21875 -13.078125 C 2.90625 -14.410156 3.867188 -15.445312 5.109375 -16.1875 C 6.347656 -16.925781 7.804688 -17.296875 9.484375 -17.296875 C 10.992188 -17.296875 12.351562 -16.976562 13.5625 -16.34375 C 14.769531 -15.707031 15.726562 -14.742188 16.4375 -13.453125 C 17.15625 -12.171875 17.515625 -10.5625 17.515625 -8.625 L 17.515625 -7.328125 L 5.875 -7.328125 L 5.875 -7.3125 C 5.875 -6.039062 6.222656 -5.035156 6.921875 -4.296875 C 7.617188 -3.566406 8.5625 -3.203125 9.75 -3.203125 C 10.539062 -3.203125 11.222656 -3.367188 11.796875 -3.703125 C 12.378906 -4.035156 12.789062 -4.53125 13.03125 -5.1875 L 17.40625 -4.890625 C 17.070312 -3.304688 16.226562 -2.039062 14.875 -1.09375 C 13.519531 -0.144531 11.785156 0.328125 9.671875 0.328125 Z M 5.875 -10.265625 L 13.046875 -10.265625 C 13.046875 -11.273438 12.722656 -12.109375 12.078125 -12.765625 C 11.429688 -13.429688 10.59375 -13.765625 9.5625 -13.765625 C 8.507812 -13.765625 7.644531 -13.421875 6.96875 -12.734375 C 6.289062 -12.054688 5.925781 -11.234375 5.875 -10.265625 Z M 5.875 -10.265625 "/></g></g></g></svg>